<svg width="24" height="24" viewBox="0 0 24 24" fill="none" xmlns="http://www.w3.org/2000/svg">
<path d="M16.9961 2.99966C17.2508 2.69869 17.5658 2.45372 17.9211 2.28034C18.2764 2.10697 18.6642 2.009 19.0597 1.99267C19.4553 1.97635 19.8499 2.04204 20.2185 2.18555C20.587 2.32905 20.9215 2.54723 21.2004 2.82618C21.4793 3.10513 21.6967 3.43872 21.8386 3.8057C21.9806 4.17268 22.0439 4.56499 22.0247 4.95764C22.0055 5.35028 21.9041 5.73465 21.727 6.08623C21.5499 6.43781 21.301 6.74889 20.9961 6.99966L7.49609 20.4997L1.99609 21.9997L3.49609 16.4997L16.9961 2.99966Z" stroke="#797A7E" stroke-width="1.66667" stroke-linecap="round" stroke-linejoin="round"/>
</svg>
