<svg xmlns="http://www.w3.org/2000/svg" width="168" height="40" fill="none"><path d="m63.778 26.61-1.192-3.097h-6.57l-1.192 3.097H52l5.941-15.122h2.866L66.75 26.61h-2.971Zm-6.799-5.557h4.644l-2.322-5.98-2.322 5.98ZM68.76 26.61V11h2.678v15.61H68.76ZM82.154 18.169h-3.368v8.44H76.11v-8.44h-2.615v-2.291h2.615v-1.57c0-2.205 1.171-3.308 3.514-3.308h3.996v2.163h-3.16c-1.115 0-1.673.559-1.673 1.676v1.039h3.368v2.29ZM93.81 26.673h-.837c-1.256 0-2.03-.48-2.323-1.442-.697 1.075-1.75 1.612-3.158 1.612-1.214 0-2.204-.332-2.971-.997-.753-.664-1.13-1.54-1.13-2.63 0-1.06.349-1.873 1.046-2.439.698-.565 1.674-.848 2.929-.848h3.138v-.042c0-.637-.202-1.146-.607-1.527-.39-.396-.92-.594-1.59-.594-.962 0-1.617.36-1.966 1.081h-2.657c.028-.268.126-.565.293-.89.167-.326.411-.672.732-1.04.321-.382.795-.693 1.423-.933.627-.254 1.339-.382 2.134-.382 1.548 0 2.733.396 3.556 1.188.837.778 1.255 1.831 1.255 3.16v3.563c0 .58.244.905.732.976v2.184Zm-7.218-2.29c.363.297.872.445 1.527.445.656 0 1.213-.177 1.674-.53.474-.368.711-.827.711-1.379v-1.124h-2.72c-.53 0-.955.12-1.276.36-.306.241-.46.58-.46 1.019 0 .509.181.912.544 1.209ZM101.575 26.61V11.55h7.092c1.66 0 2.929.39 3.807 1.167.879.778 1.318 1.902 1.318 3.372 0 1.442-.446 2.566-1.338 3.372-.879.806-2.141 1.21-3.787 1.21h-4.289v5.938h-2.803Zm6.925-12.513h-4.122v4.03h4.122c.795 0 1.394-.177 1.799-.531.404-.368.606-.863.606-1.485 0-1.343-.801-2.014-2.405-2.014ZM116.457 17.172c.921-1.047 2.141-1.57 3.661-1.57s2.734.516 3.64 1.549c.907 1.018 1.36 2.375 1.36 4.072v.445h-7.385c.042.877.293 1.59.753 2.142.461.538 1.074.806 1.841.806.921 0 1.632-.346 2.134-1.04h2.594a2.891 2.891 0 0 1-.334.998c-.182.339-.447.692-.795 1.06-.349.368-.837.672-1.465.912-.627.226-1.339.34-2.134.34-1.589 0-2.866-.524-3.828-1.57-.948-1.06-1.422-2.418-1.422-4.072 0-1.683.46-3.04 1.38-4.072Zm3.661.509c-1.311 0-2.092.735-2.343 2.206h4.644c-.265-1.471-1.032-2.206-2.301-2.206ZM132.134 15.602c1.548 0 2.804.523 3.766 1.57.962 1.046 1.443 2.404 1.443 4.072 0 1.654-.488 3.012-1.464 4.072-.962 1.046-2.211 1.57-3.745 1.57-1.534 0-2.782-.524-3.744-1.57-.963-1.06-1.444-2.418-1.444-4.072 0-1.668.481-3.026 1.444-4.072.962-1.047 2.21-1.57 3.744-1.57Zm0 8.908c.795 0 1.409-.304 1.841-.912.433-.608.649-1.393.649-2.354 0-.962-.216-1.746-.649-2.354-.432-.608-1.046-.912-1.841-.912-.795 0-1.408.304-1.841.912-.432.608-.648 1.392-.648 2.354 0 .947.216 1.732.648 2.354.447.608 1.06.912 1.841.912ZM142.488 25.04V31h-2.636V15.878h2.636v1.654c.125-.24.279-.473.46-.7.181-.24.523-.502 1.025-.784a3.393 3.393 0 0 1 1.695-.424c1.297 0 2.364.501 3.2 1.505.851 1.004 1.277 2.376 1.277 4.115 0 1.739-.426 3.11-1.277 4.114-.836.99-1.903 1.485-3.2 1.485-1.437 0-2.497-.6-3.18-1.803Zm-.042-3.796c0 .961.223 1.746.67 2.354.446.594 1.052.89 1.82.89.767 0 1.373-.296 1.82-.89.446-.608.669-1.393.669-2.354 0-.976-.223-1.76-.669-2.354-.447-.594-1.053-.891-1.82-.891-.768 0-1.374.297-1.82.89-.447.595-.67 1.38-.67 2.355ZM152.744 26.61V11h2.678v15.61h-2.678ZM159.339 17.172c.921-1.047 2.141-1.57 3.661-1.57s2.734.516 3.64 1.549c.907 1.018 1.36 2.375 1.36 4.072v.445h-7.385c.042.877.293 1.59.753 2.142.461.538 1.074.806 1.841.806.921 0 1.632-.346 2.134-1.04h2.594a2.913 2.913 0 0 1-.334.998c-.182.339-.447.692-.795 1.06-.349.368-.837.672-1.465.912-.627.226-1.339.34-2.134.34-1.59 0-2.866-.524-3.828-1.57-.948-1.06-1.423-2.418-1.423-4.072 0-1.683.461-3.04 1.381-4.072Zm3.661.509c-1.311 0-2.092.735-2.343 2.206h4.644c-.265-1.471-1.032-2.206-2.301-2.206Z" fill="#000"/><path fill-rule="evenodd" clip-rule="evenodd" d="M20 40c11.046 0 20-8.954 20-20S31.046 0 20 0 0 8.954 0 20s8.954 20 20 20Zm8.991-18.066a9.62 9.62 0 0 1-18.121 0l-5.742 2.043c2.164 6.08 7.97 10.44 14.803 10.44 6.832 0 12.638-4.36 14.802-10.44l-5.742-2.043Z" fill="#EF3124"/><path xmlns="http://www.w3.org/2000/svg" d="m63.778 26.61-1.192-3.097h-6.57l-1.192 3.097H52l5.941-15.122h2.866L66.75 26.61h-2.971Zm-6.799-5.557h4.644l-2.322-5.98-2.322 5.98ZM68.76 26.61V11h2.678v15.61H68.76ZM82.154 18.169h-3.368v8.44H76.11v-8.44h-2.615v-2.291h2.615v-1.57c0-2.205 1.171-3.308 3.514-3.308h3.996v2.163h-3.16c-1.115 0-1.673.559-1.673 1.676v1.039h3.368v2.29ZM93.81 26.673h-.837c-1.256 0-2.03-.48-2.323-1.442-.697 1.075-1.75 1.612-3.158 1.612-1.214 0-2.204-.332-2.971-.997-.753-.664-1.13-1.54-1.13-2.63 0-1.06.349-1.873 1.046-2.439.698-.565 1.674-.848 2.929-.848h3.138v-.042c0-.637-.202-1.146-.607-1.527-.39-.396-.92-.594-1.59-.594-.962 0-1.617.36-1.966 1.081h-2.657c.028-.268.126-.565.293-.89.167-.326.411-.672.732-1.04.321-.382.795-.693 1.423-.933.627-.254 1.339-.382 2.134-.382 1.548 0 2.733.396 3.556 1.188.837.778 1.255 1.831 1.255 3.16v3.563c0 .58.244.905.732.976v2.184Zm-7.218-2.29c.363.297.872.445 1.527.445.656 0 1.213-.177 1.674-.53.474-.368.711-.827.711-1.379v-1.124h-2.72c-.53 0-.955.12-1.276.36-.306.241-.46.58-.46 1.019 0 .509.181.912.544 1.209ZM101.575 26.61V11.55h7.092c1.66 0 2.929.39 3.807 1.167.879.778 1.318 1.902 1.318 3.372 0 1.442-.446 2.566-1.338 3.372-.879.806-2.141 1.21-3.787 1.21h-4.289v5.938h-2.803Zm6.925-12.513h-4.122v4.03h4.122c.795 0 1.394-.177 1.799-.531.404-.368.606-.863.606-1.485 0-1.343-.801-2.014-2.405-2.014ZM116.457 17.172c.921-1.047 2.141-1.57 3.661-1.57s2.734.516 3.64 1.549c.907 1.018 1.36 2.375 1.36 4.072v.445h-7.385c.042.877.293 1.59.753 2.142.461.538 1.074.806 1.841.806.921 0 1.632-.346 2.134-1.04h2.594a2.891 2.891 0 0 1-.334.998c-.182.339-.447.692-.795 1.06-.349.368-.837.672-1.465.912-.627.226-1.339.34-2.134.34-1.589 0-2.866-.524-3.828-1.57-.948-1.06-1.422-2.418-1.422-4.072 0-1.683.46-3.04 1.38-4.072Zm3.661.509c-1.311 0-2.092.735-2.343 2.206h4.644c-.265-1.471-1.032-2.206-2.301-2.206ZM132.134 15.602c1.548 0 2.804.523 3.766 1.57.962 1.046 1.443 2.404 1.443 4.072 0 1.654-.488 3.012-1.464 4.072-.962 1.046-2.211 1.57-3.745 1.57-1.534 0-2.782-.524-3.744-1.57-.963-1.06-1.444-2.418-1.444-4.072 0-1.668.481-3.026 1.444-4.072.962-1.047 2.21-1.57 3.744-1.57Zm0 8.908c.795 0 1.409-.304 1.841-.912.433-.608.649-1.393.649-2.354 0-.962-.216-1.746-.649-2.354-.432-.608-1.046-.912-1.841-.912-.795 0-1.408.304-1.841.912-.432.608-.648 1.392-.648 2.354 0 .947.216 1.732.648 2.354.447.608 1.06.912 1.841.912ZM142.488 25.04V31h-2.636V15.878h2.636v1.654c.125-.24.279-.473.46-.7.181-.24.523-.502 1.025-.784a3.393 3.393 0 0 1 1.695-.424c1.297 0 2.364.501 3.2 1.505.851 1.004 1.277 2.376 1.277 4.115 0 1.739-.426 3.11-1.277 4.114-.836.99-1.903 1.485-3.2 1.485-1.437 0-2.497-.6-3.18-1.803Zm-.042-3.796c0 .961.223 1.746.67 2.354.446.594 1.052.89 1.82.89.767 0 1.373-.296 1.82-.89.446-.608.669-1.393.669-2.354 0-.976-.223-1.76-.669-2.354-.447-.594-1.053-.891-1.82-.891-.768 0-1.374.297-1.82.89-.447.595-.67 1.38-.67 2.355ZM152.744 26.61V11h2.678v15.61h-2.678ZM159.339 17.172c.921-1.047 2.141-1.57 3.661-1.57s2.734.516 3.64 1.549c.907 1.018 1.36 2.375 1.36 4.072v.445h-7.385c.042.877.293 1.59.753 2.142.461.538 1.074.806 1.841.806.921 0 1.632-.346 2.134-1.04h2.594a2.913 2.913 0 0 1-.334.998c-.182.339-.447.692-.795 1.06-.349.368-.837.672-1.465.912-.627.226-1.339.34-2.134.34-1.59 0-2.866-.524-3.828-1.57-.948-1.06-1.423-2.418-1.423-4.072 0-1.683.461-3.04 1.381-4.072Zm3.661.509c-1.311 0-2.092.735-2.343 2.206h4.644c-.265-1.471-1.032-2.206-2.301-2.206Z" fill="#000"/></svg>
